<svg id="Grupo_1" data-name="Grupo 1" xmlns="http://www.w3.org/2000/svg" width="500" height="500" viewBox="0 0 500 500">
  <defs>
    <style>
      .cls-1 {
        fill: #000000;
        fill-rule: evenodd;
      }
    </style>
  </defs>
  <path id="Forma_2_copia" data-name="Forma 2 copia" class="cls-1" d="M441.27,365.61s18.889,6.832,17.688.465-11.784-20.086-23.739-22.342-42.907-8.478-47.943-9.309-49.955-7.209-56.321-7.913-30.574-2.758-44.685-3.258-45.417-.4-64.7.931-27.2.612-59.114,6.981-82.879,19.386-92.627,31.652-10.875,12.226-10.706,21.412-0.546,13.652,15.826,19.549,39.58,10.807,49.8,13.033A209,209,0,0,0,167.111,421c15.959-.09,88.438.931,88.438,0.931S327,422.385,356.09,417.277s55.942-7.789,60.51-19.084,2.793-12.1,2.793-12.1,7.534-2.183-28.393,4.655-94.435,11.857-114.5,12.1-114.985-2.516-125.675-4.189-50.618-6.951-59.115-9.309-12.539-2.125-10.24-7.448,5.246-8,12.1-11.171a186.753,186.753,0,0,1,45.15-14.9c23.069-4.521,33.853-10.341,75.871-12.567s91.29-3.212,128.469,1.861,42.994,4.106,57.717,9.31S441.27,365.61,441.27,365.61Z"/>
  <path id="Forma_1_copia" data-name="Forma 1 copia" class="cls-1" d="M108,332.562s-8.249,1.344-9.775-7.448-7.173-36.3-8.844-42.357-13.436-33.02-15.826-38.634-14.578-31.5-16.757-33.978-7.981-3.682-18.153-5.121S18.372,197.253,16.3,188.733s-2.321-24.316,3.258-31.186,11.855-12.553,19.55-13.5S62.315,142.1,71.225,150.1,85.2,163.152,84.258,169.184s-0.25,7.591-2.793,12.567-5.586,11.171-5.586,11.171-4.363,5.189.931,10.706,57.717,60.045,57.717,60.045,37.016,32.512,46.081,33.979,9.6,3.487,13.5-.931,7.6-8.741,12.567-25.135,9.775-33.979,9.775-33.979,7.625-31.752,8.378-36.772,4.163-30.327,4.655-33.048,3.724-25.135,3.724-25.135S215.022,129,212.726,123.1s-4.371-15.393,0-24.2,6.417-14.3,16.757-17.688,11.1-3.556,17.688-2.793,18.786,3.159,20.946,6.051,9.88,9.807,11.171,18.618a26.708,26.708,0,0,1-3.724,18.619c-2.409,4.129-11.969,11.139-12.567,12.1s-5.747,2.786-6.051,5.586-1.059,7.014,0,12.1,11.171,50.27,11.171,50.27,16.442,54.676,18.618,59.58S297.184,288.28,300.7,290.67s3.633,6.679,10.241,2.793,24.2-15.361,24.2-15.361l33.979-25.135s11.761-8.928,20.015-16.756S414.966,212.788,418,209.679s5.585-5.586,5.585-5.586,1.192,1.021,0-9.309-0.712-18.1,1.4-21.411,5.515-10.814,10.705-13.5a35.044,35.044,0,0,1,13.5-4.189c3.963-.313,18.256-0.416,24.669,6.982s8.136,8.109,9.775,13.964,2.149,15.891,0,20.946-6.169,12.791-12.567,15.36-15.646,3.774-20.946,2.793-6.327-3.626-8.844,1.862-17.222,30.255-17.222,30.255-5.931,14.073-11.172,30.255-10.546,35.533-10.7,40.03-0.466,6.982-.466,6.982-1.678,4.5-3.723,3.259a13.174,13.174,0,0,1-3.259-2.793s-8.269-9.91-8.844-13.964,0-15.36,0-15.36-1.414.059,1.862-8.379,25.806-42.255,10.241-31.186-44.517,35.26-52.6,40.03-25.739,17.573-36.306,16.757-17.106.292-26.066-14.895-14.278-25.069-18.153-36.772-9.086-28.7-11.172-37.237-4.321-34.922-7.447-25.135-6.517,29.324-6.517,29.324-5.7,27.107-8.378,35.841S220.7,300.963,211.33,309.289s-10.1,10.935-21.411,10.24-19.035.457-44.22-20.481-37.478-33.361-39.1-35.375-4.556-5.721-2.327,2.327,7.387,22.42,10.24,36.307,3.8,25.5,1.4,27.462a18.2,18.2,0,0,1-4.655,2.793H108Z"/>
</svg>